<?xml version="1.0" encoding="UTF-8" standalone="no"?>
<svg id="svg3172" xmlns="http://www.w3.org/2000/svg" viewBox="0 0 58.32 69.648" height="100%" width="100%" version="1.1">
 <g id="layer1" transform="translate(-176.55261,-228.96236)">
  <g id="g3128" transform="translate(-133.78002,648.18111)">
   <path id="path3908-5" stroke-linejoin="miter" style="color:#000000;enable-background:accumulate;" d="m336.41-376.32c-8.7409,4.9148-18.72,3.5546-15.389,8.762,3.462,5.413,14.282,11.3,22.659,14.5,6.7295,2.5706,20.376,3.6968,21.334,3.4541-6.605-9.3883,0.25145-19.247-4.1464-27.545" fill-rule="nonzero" fill-opacity="0.49803922" stroke-dashoffset="0" stroke-linecap="butt" stroke-miterlimit="4" stroke-dasharray="none" stroke-width="0.55810475000000004" fill="#63b5f7"/>
   <g id="g4817" transform="translate(305,0)">
    <g id="g4819" transform="matrix(0.56688306,0,0,0.54946241,0.04826517,-418.86179)">
     <g id="g4821">
      <path id="path4823" stroke-linejoin="miter" style="color:#000000;enable-background:accumulate;" d="M27.462,47.367c12.456-23.474,38.307-31.033,61.198-17.359,15.3,9.16,16.982,42.888,8.1412,61.566-5.532,11.686-20.067,19.616-32.876,20.176-13.021,0.56-27.81-6.59-35.025-17.559-8.127-12.354-10.729-29.423-2.773-44.415l1.335-2.409" fill-rule="nonzero" stroke-dashoffset="0" stroke-linecap="butt" stroke-miterlimit="4" stroke-dasharray="none" stroke-width="0.99999994" fill="#63b5f7"/>
     </g>
    </g>
    <path id="path4825" d="m12.122-376.91s2.3413-4.499,7.0309-9.5156c6.1028-6.5414,12.744-11.073,12.744-11.073s6.5589,2.5951,14.622,9.5167c7.3765,6.332,11.175,11.325,11.175,11.325s2.8676-2.8632,4.094-6.5738c3.3743-10.208-2.1118-35.022-28.034-35.022-26.23,0-29.787,25.256-26.354,35.296,1.2034,3.5187,4.7221,6.0468,4.7221,6.0468z" stroke="#CCC" stroke-dasharray="none" stroke-miterlimit="4" stroke-width="1.91987169" fill="#f0f3f5"/>
    <path id="path4827" d="m43.381-371.06c-0.3203-0.14282-0.69835-0.1307-1.0352-0.25441-0.99783-0.36703-1.6336-1.1824-2.4467-1.7973-0.7759-0.58627-1.605-1.1379-2.5468-1.4671-1.0517-0.36815-2.1006-0.5176-3.1308-0.5176-1.0352,0-2.0841,0.14942-3.1364,0.5176-0.93896,0.32968-1.7687,0.88079-2.5467,1.4671-0.81107,0.6143-1.449,1.4303-2.4441,1.7973-0.33627,0.12364-0.71488,0.11214-1.0374,0.25441-0.74344,0.33407-0.52095,1.1962-0.0934,1.6753,0.17035,0.18956,0.38305,0.41594,0.63083,0.51868,0.80882,0.33409,1.7341,0.48848,2.6121,0.3808,1.5956-0.19398,2.9303-1.0956,4.3908-1.6473,0.58186-0.21925,1.1099-0.28518,1.6242-0.29561,0.51148,0.0107,1.0395,0.0757,1.6214,0.29561,1.4583,0.55165,2.7946,1.4533,4.388,1.6473,0.88078,0.10768,1.8039-0.0467,2.6172-0.3808,0.2456-0.10323,0.45763-0.32966,0.62627-0.51868,0.42974-0.47913,0.64951-1.3412-0.0934-1.6753z" fill="#2f2f2f"/>
    <path id="path4829" style="color:#000000;enable-background:accumulate;" d="m131.52-27.39c0,12.887-8.706,23.335-19.445,23.335s-19.445-10.447-19.445-23.335c0-12.887,8.706-23.335,19.445-23.335s19.445,10.447,19.445,23.335z" fill-rule="nonzero" transform="matrix(0.23481423,0,0,0.23481423,6.1548108,-395.82392)" fill="#ff4350"/>
    <path id="path4831" style="color:#000000;enable-background:accumulate;" d="m35.851-403.05c0-1.8656-1.516-3.3757-3.3816-3.3757s-3.3757,1.5101-3.3757,3.3757c0,0.24816,0.03187,0.48834,0.08313,0.72126,0.33318-1.5154,1.6775-2.6485,3.293-2.6485s2.9657,1.1332,3.2988,2.6485c0.05126-0.23292,0.08313-0.4731,0.08313-0.72126z" fill-opacity="0.49803922" fill-rule="nonzero" fill="#FFF"/>
    <g id="g4833" stroke-linejoin="miter" style="color:#000000;enable-background:accumulate;" fill-rule="nonzero" stroke-dashoffset="0" transform="matrix(0.5499922,0,0,0.5499922,-0.76821822,-417.17763)" stroke-linecap="butt" stroke-miterlimit="4" stroke-dasharray="none" stroke-width="1.81820762" fill="#2f2f2f">
     <g id="g4835" stroke-linejoin="miter" style="color:#000000;enable-background:accumulate;" fill-rule="nonzero" stroke-dashoffset="0" stroke-linecap="butt" stroke-miterlimit="4" stroke-dasharray="none" stroke-width="1.81820762" fill="#2f2f2f">
      <path id="path4837" style="color:#000000;enable-background:accumulate;" d="m53.666,66.308c0,3.536-2.373,6.387-5.294,6.387-2.926,0-5.29-2.851-5.29-6.387,0-3.54,2.364-6.394,5.29-6.394,2.921,0,5.294,2.854,5.294,6.394"/>
      <path id="path4839" style="color:#000000;enable-background:accumulate;" d="m74.325,66.308c0,3.536,2.36,6.387,5.307,6.387,2.913,0,5.291-2.851,5.291-6.387,0-3.54-2.377-6.394-5.291-6.394-2.947,0-5.307,2.854-5.307,6.394"/>
     </g>
    </g>
   </g>
  </g>
 </g>
</svg>
