<svg xmlns="http://www.w3.org/2000/svg">
  <symbol id="jini-logo" viewBox="0 0 35 35">
    <circle id="jini-logo-circle" cx="17.5" cy="17.5" r="17.5" fill="#fff"/>
    <path id="jini-logo-crane" d="m7.7811 6.2537c-0.02176 0.0635-0.01525 0.13626 0.06805 0.13626 0.5096 0.34065 10.018 4.5701 11.718 6.2679 0.16896 0.16896 0.71671 0.88567 0.88567 0.88567 0.1718 0 0.34064-0.20427 0.34064-0.54503 0 0-0.20428-0.30794-0.20428-0.81755 0-1.3598 1.1964-2.5889 3.0658-2.5889 3.0576 0 5.2459 2.2537 5.2459 4.9734 0 2.717-2.0466 5.9272-2.7252 5.9272-0.1718 0-0.34064-0.13627-0.34064-0.13627 0-0.67856 0.54502-1.8749 0.54502-2.7252 0-1.3599-0.48235-2.7252-2.8614-2.7252h-0.54502c-0.17159 0.16896 0.17178 0.13626 0.34064 0.13626 0.50961 0 1.0219 0.8557 1.0219 2.0439 0 4.6156-5.7827 11.583-9.3337 17.714 0.80118 0.11075 1.6211 0.20428 2.4526 0.20428 2.1179 0 4.1803-0.40965 6.0635-1.0901 0.13278-7.2137 7.2898-13.12 7.2898-19.349 0-4.0768-2.9077-6.8129-7.4942-6.8129-1.1882 0-2.5562 0.54504-3.0658 0.88568-2.548-0.67856-10.871-2.2156-12.399-2.3845-0.0064 0.0109-0.06283-0.0153-0.06805 0zm15.738 4.7009c-0.84752 0-1.567 0.68128-1.567 1.3626 0 0.84753 0.71944 1.567 1.567 1.567 0.68129 0 1.2944-0.71944 1.2944-1.567 0-0.68129-0.61316-1.3626-1.2944-1.3626z" fill="#1c2030"/>
  </symbol>
  
  <symbol id="icon-flag" viewBox="0 0 20 20">
		<path d="M18.926,5.584c-9.339,13.568-6.142-0.26-14.037,6.357L6.684,19H4.665L1,4.59l1.85-0.664c8.849-6.471,4.228,5.82,15.637,1.254C18.851,5.033,19.142,5.27,18.926,5.584z"/>
	</symbol>
	
	<symbol id="icon-check" viewBox="0 0 20 20">
		<path d="M8.294,16.998c-0.435,0-0.847-0.203-1.111-0.553L3.61,11.724c-0.465-0.613-0.344-1.486,0.27-1.951c0.615-0.467,1.488-0.344,1.953,0.27l2.351,3.104l5.911-9.492c0.407-0.652,1.267-0.852,1.921-0.445c0.653,0.406,0.854,1.266,0.446,1.92L9.478,16.34c-0.242,0.391-0.661,0.635-1.12,0.656C8.336,16.998,8.316,16.998,8.294,16.998z"/>
	</symbol>

  <symbol id="icon-draft" viewBox="0 0 20 20">
    <path d="M16,1H4C3.447,1,3,1.447,3,2v16c0,0.552,0.447,1,1,1h12c0.553,0,1-0.448,1-1V2C17,1.448,16.553,1,16,1z M15,17H5V3h10V17z M13,5H7v2h6V5z M13,13H7v2h6V13z M13,9H7v2h6V9z"/>
  </symbol>

  <symbol id="icon-trial" viewBox="0 0 20 20">
    <path fill-rule="evenodd" clip-rule="evenodd" d="M16.432,15C14.387,9.893,12,8.547,12,6V3h0.5C12.776,3,13,2.776,13,2.5v-1 C13,1.224,12.776,1,12.5,1h-5C7.224,1,7,1.224,7,1.5v1C7,2.776,7.224,3,7.5,3H8v3c0,2.547-2.387,3.893-4.432,9 C2.917,16.625,1.245,19,10,19S17.083,16.625,16.432,15z M14.815,16.751C14.113,16.961,12.716,17.2,10,17.2s-4.113-0.239-4.815-0.449 c-0.249-0.074-0.346-0.363-0.258-0.628c0.22-0.67,0.635-1.828,1.411-3.121c1.896-3.159,3.863,0.497,5.5,0.497 c1.637,0,1.188-1.561,1.824-0.497c0.774,1.294,1.191,2.451,1.411,3.121C15.161,16.388,15.064,16.676,14.815,16.751z"/>
  </symbol>

  <symbol id="icon-warning" viewBox="0 0 20 20">
    <path d="M19.511,17.98L10.604,1.348C10.48,1.133,10.25,1,10,1C9.749,1,9.519,1.133,9.396,1.348L0.49,17.98c-0.121,0.211-0.119,0.471,0.005,0.68C0.62,18.871,0.847,19,1.093,19h17.814c0.245,0,0.474-0.129,0.598-0.34C19.629,18.451,19.631,18.191,19.511,17.98z M11,17H9v-2h2V17z M11,13.5H9V7h2V13.5z"/>
  </symbol>
</svg>
