<?xml version="1.0" encoding="UTF-8" standalone="no"?>
<svg xmlns="http://www.w3.org/2000/svg" viewBox="0 0 35 35" height="100%" width="100%" version="1.1">  <circle id="jini-logo-circle" cx="17.5" cy="17.5" r="17.5" fill="#fff"/>  <path id="jini-logo-crane" d="m7.7811 6.2537c-0.02176 0.0635-0.01525 0.13626 0.06805 0.13626 0.5096 0.34065 10.018 4.5701 11.718 6.2679 0.16896 0.16896 0.71671 0.88567 0.88567 0.88567 0.1718 0 0.34064-0.20427 0.34064-0.54503 0 0-0.20428-0.30794-0.20428-0.81755 0-1.3598 1.1964-2.5889 3.0658-2.5889 3.0576 0 5.2459 2.2537 5.2459 4.9734 0 2.717-2.0466 5.9272-2.7252 5.9272-0.1718 0-0.34064-0.13627-0.34064-0.13627 0-0.67856 0.54502-1.8749 0.54502-2.7252 0-1.3599-0.48235-2.7252-2.8614-2.7252h-0.54502c-0.17159 0.16896 0.17178 0.13626 0.34064 0.13626 0.50961 0 1.0219 0.8557 1.0219 2.0439 0 4.6156-5.7827 11.583-9.3337 17.714 0.80118 0.11075 1.6211 0.20428 2.4526 0.20428 2.1179 0 4.1803-0.40965 6.0635-1.0901 0.13278-7.2137 7.2898-13.12 7.2898-19.349 0-4.0768-2.9077-6.8129-7.4942-6.8129-1.1882 0-2.5562 0.54504-3.0658 0.88568-2.548-0.67856-10.871-2.2156-12.399-2.3845-0.0064 0.0109-0.06283-0.0153-0.06805 0zm15.738 4.7009c-0.84752 0-1.567 0.68128-1.567 1.3626 0 0.84753 0.71944 1.567 1.567 1.567 0.68129 0 1.2944-0.71944 1.2944-1.567 0-0.68129-0.61316-1.3626-1.2944-1.3626z" fill="#1c2030"/>
</svg>
